<svg xmlns="http://www.w3.org/2000/svg" width="689" height="630" fill="none"><path fill="#72bf78" fill-rule="evenodd" d="M344.003 204.066c-47.369 0-52.093 4.892-76.608 4.892-20.429 0-81.717-48.958-112.36-48.958s-66.394 17.625-66.394 68.542v58.75c.062 15.422 5.785 62.695 28.183 50.061-26.48 30.644-29.156 66.376-28.792 100.968-7.132 2.018-14.409 4.293-21.471 6.656-21.885 7.329-45.094 16.672-55.579 23.302-11.134 7.041-14.331 21.589-7.14 32.49 7.19 10.904 22.047 14.034 33.181 6.993 5-3.161 23.08-10.951 45.067-18.311 2.43-.814 4.864-1.607 7.285-2.375 1.481 13.593 5.156 26.001 10.618 37.306l-.755.388c-13.11 6.784-25.276 14.573-33.034 19.54-1.342.858-2.552 1.632-3.612 2.303-11.135 7.04-14.332 21.588-7.14 32.489 7.19 10.904 22.046 14.034 33.18 6.994 1.317-.834 2.719-1.73 4.199-2.676 7.851-5.017 17.889-11.434 28.833-17.096a174.178 174.178 0 0 1 7.397-3.615C184.431 613.544 283.837 630 344.003 630c60.163 0 159.571-16.456 214.941-67.291a174.144 174.144 0 0 1 7.395 3.615c10.944 5.662 20.983 12.079 28.832 17.096 1.482.946 2.883 1.842 4.199 2.676 11.136 7.04 25.99 3.91 33.184-6.994 7.19-10.901 3.993-25.449-7.143-32.489-1.059-.671-2.269-1.445-3.613-2.303-7.756-4.967-19.923-12.756-33.033-19.54l-.752-.388c5.462-11.309 9.136-23.713 10.617-37.309 2.426.768 4.864 1.56 7.296 2.378 21.988 7.36 40.071 15.15 45.069 18.311 11.133 7.041 25.991 3.911 33.181-6.993 7.19-10.901 3.994-25.449-7.139-32.49-10.487-6.63-33.696-15.973-55.581-23.302a481.444 481.444 0 0 0-21.482-6.659c.362-34.592-2.313-70.321-28.793-100.965 22.4 12.634 28.121-34.639 28.185-50.061v-58.747c0-50.917-35.753-68.542-66.396-68.542-30.644 0-91.93 48.955-112.359 48.955-24.515 0-29.235-4.892-76.608-4.892Zm-21.619 288.08c6.483-2.162 14.134-3.146 21.619-3.146 7.485 0 15.136.984 21.619 3.146 3.181 1.059 7.072 2.732 10.496 5.433 3.44 2.71 7.885 7.733 7.885 14.921s-4.445 12.211-7.885 14.921c-3.424 2.701-7.315 4.374-10.496 5.433-6.483 2.162-14.134 3.146-21.619 3.146-7.485 0-15.136-.984-21.619-3.146-3.181-1.059-7.072-2.732-10.499-5.433-3.44-2.71-7.882-7.733-7.882-14.921s4.442-12.211 7.882-14.921c3.427-2.701 7.318-4.374 10.499-5.433Zm91.059-97.13c4.368-7.157 12.989-15.683 25.92-15.683 12.931 0 21.552 8.526 25.917 15.683 4.554 7.463 6.723 16.509 6.723 25.442s-2.169 17.979-6.723 25.443c-4.365 7.157-12.986 15.682-25.917 15.682-12.931 0-21.552-8.525-25.92-15.682-4.553-7.464-6.72-16.51-6.72-25.443s2.167-17.979 6.72-25.442Zm-190.718 0c4.366-7.157 12.987-15.683 25.918-15.683 12.932 0 21.553 8.526 25.918 15.683 4.554 7.463 6.722 16.509 6.722 25.442s-2.168 17.979-6.722 25.443c-4.365 7.157-12.986 15.682-25.918 15.682-12.931 0-21.552-8.525-25.918-15.682-4.554-7.464-6.722-16.51-6.722-25.443s2.168-17.979 6.722-25.442Z" clip-rule="evenodd"/><path fill="#fff" d="M214 188h252v63l-126 23-121-28-5-58Z"/><path fill="#72bf78" d="M445.274 92.4c5.511 2.4 11.023 3.6 17.636 3.6C487.16 96 507 74.4 507 48S487.16 0 462.91 0c-20.942 0-39.681 16.8-42.987 38.4-23.148-1.2-46.295-7.2-67.237-19.2-12.125-6-24.25-7.2-36.374-2.4-14.33 6-24.25 16.8-30.863 31.2l-50.704 121.2c-5.511 1.2-9.92 3.6-14.329 6-11.022 7.2-18.738 20.4-20.942 36-3.307 26.4 11.022 51.6 33.067 57.6l24.249 7.2c27.556 8.4 56.215 12 84.873 12 28.659 0 57.317-3.6 84.873-12l24.249-7.2c23.148-6 37.477-31.2 33.068-57.6-2.205-14.4-9.92-27.6-20.943-36-4.409-2.4-8.818-4.8-13.227-6L418.82 114c9.921-6 18.739-13.2 26.454-21.6ZM462.91 24c12.125 0 22.045 10.8 22.045 24s-9.92 24-22.045 24c-12.125 0-22.045-10.8-22.045-24s9.92-24 22.045-24Zm0 190.8c2.205 14.4-5.511 27.6-17.636 31.2l-24.249 7.2c-51.806 14.4-106.918 14.4-158.723 0l-24.25-7.2c-12.125-3.6-19.84-16.8-17.636-31.2 1.102-8.4 5.511-14.4 11.023-19.2 4.409-2.4 7.715-3.6 12.124-3.6 2.205 0 4.409 0 5.512 1.2 60.623 19.2 123.451 19.2 184.075 0 6.613-2.4 12.124-1.2 17.635 2.4 6.614 4.8 11.023 10.8 12.125 19.2Z"/></svg>