<svg xmlns="http://www.w3.org/2000/svg" version="1.1" xmlns:xlink="http://www.w3.org/1999/xlink" xmlns:svgjs="http://svgjs.dev/svgjs" width="689" height="630"><svg width="689" height="630" viewBox="0 0 689 630" fill="none" xmlns="http://www.w3.org/2000/svg">
<path fill-rule="evenodd" clip-rule="evenodd" d="M344.003 204.066C296.634 204.066 291.91 208.958 267.395 208.958C246.966 208.958 185.678 160 155.035 160C124.392 160 88.6413 177.625 88.6413 228.542V287.292C88.703 302.714 94.4259 349.987 116.824 337.353C90.3434 367.997 87.6681 403.729 88.032 438.321C80.8998 440.339 73.623 442.614 66.5609 444.977C44.6765 452.306 21.4672 461.649 10.9824 468.279C-0.1523 475.32 -3.34916 489.868 3.84191 500.769C11.0329 511.673 25.8889 514.803 37.0233 507.762C42.0224 504.601 60.1033 496.811 82.0902 489.451C84.5197 488.637 86.9539 487.844 89.3753 487.076C90.856 500.669 94.5306 513.077 99.993 524.382L99.2384 524.77C86.1274 531.554 73.9616 539.343 66.2045 544.31C64.8621 545.168 63.6518 545.942 62.5917 546.613C51.4569 553.653 48.2601 568.201 55.4512 579.102C62.6422 590.006 77.4982 593.136 88.6329 586.096C89.9488 585.262 91.351 584.366 92.831 583.42C100.682 578.403 110.72 571.986 121.664 566.324C124.23 564.996 126.699 563.793 129.061 562.709C184.431 613.544 283.837 630 344.003 630C404.166 630 503.574 613.544 558.944 562.709C561.306 563.793 563.773 564.996 566.339 566.324C577.283 571.986 587.322 578.403 595.171 583.42C596.653 584.366 598.054 585.262 599.37 586.096C610.506 593.136 625.36 590.006 632.554 579.102C639.744 568.201 636.547 553.653 625.411 546.613C624.352 545.942 623.142 545.168 621.798 544.31C614.042 539.343 601.875 531.554 588.765 524.77L588.013 524.382C593.475 513.073 597.149 500.669 598.63 487.073C601.056 487.841 603.494 488.633 605.926 489.451C627.914 496.811 645.997 504.601 650.995 507.762C662.128 514.803 676.986 511.673 684.176 500.769C691.366 489.868 688.17 475.32 677.037 468.279C666.55 461.649 643.341 452.306 621.456 444.977C614.39 442.611 607.11 440.339 599.974 438.318C600.336 403.726 597.661 367.997 571.181 337.353C593.581 349.987 599.302 302.714 599.366 287.292V228.545C599.366 177.628 563.613 160.003 532.97 160.003C502.326 160.003 441.04 208.958 420.611 208.958C396.096 208.958 391.376 204.066 344.003 204.066ZM322.384 492.146C328.867 489.984 336.518 489 344.003 489C351.488 489 359.139 489.984 365.622 492.146C368.803 493.205 372.694 494.878 376.118 497.579C379.558 500.289 384.003 505.312 384.003 512.5C384.003 519.688 379.558 524.711 376.118 527.421C372.694 530.122 368.803 531.795 365.622 532.854C359.139 535.016 351.488 536 344.003 536C336.518 536 328.867 535.016 322.384 532.854C319.203 531.795 315.312 530.122 311.885 527.421C308.445 524.711 304.003 519.688 304.003 512.5C304.003 505.312 308.445 500.289 311.885 497.579C315.312 494.878 319.203 493.205 322.384 492.146ZM413.443 395.016C417.811 387.859 426.432 379.333 439.363 379.333C452.294 379.333 460.915 387.859 465.28 395.016C469.834 402.479 472.003 411.525 472.003 420.458C472.003 429.391 469.834 438.437 465.28 445.901C460.915 453.058 452.294 461.583 439.363 461.583C426.432 461.583 417.811 453.058 413.443 445.901C408.89 438.437 406.723 429.391 406.723 420.458C406.723 411.525 408.89 402.479 413.443 395.016ZM222.725 395.016C227.091 387.859 235.712 379.333 248.643 379.333C261.575 379.333 270.196 387.859 274.561 395.016C279.115 402.479 281.283 411.525 281.283 420.458C281.283 429.391 279.115 438.437 274.561 445.901C270.196 453.058 261.575 461.583 248.643 461.583C235.712 461.583 227.091 453.058 222.725 445.901C218.171 438.437 216.003 429.391 216.003 420.458C216.003 411.525 218.171 402.479 222.725 395.016Z" fill="#72bf78"></path>
<path d="M214 188H466V251L340 274L219 246L214 188Z" fill="white"></path>
<path d="M445.274 92.4C450.785 94.8 456.297 96 462.91 96C487.16 96 507 74.4 507 48C507 21.6 487.16 0 462.91 0C441.968 0 423.229 16.8 419.923 38.4C396.775 37.2 373.628 31.2 352.686 19.2C340.561 13.2 328.436 12 316.312 16.8C301.982 22.8 292.062 33.6 285.449 48L234.745 169.2C229.234 170.4 224.825 172.8 220.416 175.2C209.394 182.4 201.678 195.6 199.474 211.2C196.167 237.6 210.496 262.8 232.541 268.8L256.79 276C284.346 284.4 313.005 288 341.663 288C370.322 288 398.98 284.4 426.536 276L450.785 268.8C473.933 262.8 488.262 237.6 483.853 211.2C481.648 196.8 473.933 183.6 462.91 175.2C458.501 172.8 454.092 170.4 449.683 169.2L418.82 114C428.741 108 437.559 100.8 445.274 92.4ZM462.91 24C475.035 24 484.955 34.8 484.955 48C484.955 61.2 475.035 72 462.91 72C450.785 72 440.865 61.2 440.865 48C440.865 34.8 450.785 24 462.91 24ZM462.91 214.8C465.115 229.2 457.399 242.4 445.274 246L421.025 253.2C369.219 267.6 314.107 267.6 262.302 253.2L238.052 246C225.927 242.4 218.212 229.2 220.416 214.8C221.518 206.4 225.927 200.4 231.439 195.6C235.848 193.2 239.154 192 243.563 192C245.768 192 247.972 192 249.075 193.2C309.698 212.4 372.526 212.4 433.15 193.2C439.763 190.8 445.274 192 450.785 195.6C457.399 200.4 461.808 206.4 462.91 214.8Z" fill="#72bf78"></path>
</svg><style>@media (prefers-color-scheme: light) { :root { filter: none; } }
@media (prefers-color-scheme: dark) { :root { filter: none; } }
</style></svg>